<?xml version="1.0" encoding="utf-8"?>
<!-- Generator: Adobe Illustrator 27.5.0, SVG Export Plug-In . SVG Version: 6.00 Build 0)  -->
<svg version="1.1" xmlns="http://www.w3.org/2000/svg" xmlns:xlink="http://www.w3.org/1999/xlink" x="0px" y="0px"
	 viewBox="0 0 800 500" style="enable-background:new 0 0 800 500;" xml:space="preserve">
<g id="_x39_1">
	<g>
		<rect style="fill:#1a1a1a;"/>
		<linearGradient id="SVGID_1_" gradientUnits="userSpaceOnUse" x1="400" y1="401.5" x2="400" y2="47.793">
			<stop  offset="0" style="stop-color:#21013d"/>
			<stop  offset="1" style="stop-color:#500194"/>
		</linearGradient>
		<path style="fill:url(#SVGID_1_);" d="M0,114.984l44.5-16.861C89,81.136,178,47.414,266.801,49.442
			c88.899,2.155,177.5,40.186,266.399,45.892c88.8,5.705,177.8-20.918,222.3-34.23L800,47.793V401.5h-44.5c-44.5,0-133.5,0-222.3,0
			c-88.899,0-177.5,0-266.399,0c-88.801,0-177.801,0-222.301,0H0V114.984z"/>
		<g>
			
			
			<path style="opacity:0.72;fill:#FFFFFF;" d="M508.654,269.632c0,0.711-0.576,1.288-1.289,1.288c-0.711,0-1.287-0.577-1.287-1.288
				c0-0.712,0.576-1.289,1.287-1.289C508.078,268.343,508.654,268.92,508.654,269.632z"/>
			<path style="opacity:0.97;fill:#FFFFFF;" d="M442.596,342.631c0,0.6-0.486,1.086-1.088,1.086c-0.598,0-1.084-0.486-1.084-1.086
				c0-0.6,0.486-1.086,1.084-1.086C442.109,341.545,442.596,342.031,442.596,342.631z"/>
			<path style="opacity:0.65;fill:#FFFFFF;" d="M418.541,349.99c0,1.24-1.006,2.247-2.248,2.247c-1.24,0-2.246-1.007-2.246-2.247
				c0-1.241,1.006-2.248,2.246-2.248C417.535,347.742,418.541,348.749,418.541,349.99z"/>
			<path style="opacity:0.74;fill:#FFFFFF;" d="M343.814,345.989c0,1.208-0.978,2.184-2.185,2.184c-1.206,0-2.185-0.976-2.185-2.184
				c0-1.206,0.978-2.184,2.185-2.184C342.836,343.806,343.814,344.783,343.814,345.989z"/>
			<path style="opacity:0.76;fill:#FFFFFF;" d="M301.947,367.991c0,2.147-1.742,3.891-3.891,3.891c-2.148,0-3.891-1.743-3.891-3.891
				c0-2.149,1.742-3.893,3.891-3.893C300.205,364.099,301.947,365.842,301.947,367.991z"/>
			<path style="opacity:0.66;fill:#FFFFFF;" d="M214.156,379.751c0,1.897-1.538,3.434-3.436,3.434c-1.897,0-3.435-1.537-3.435-3.434
				c0-1.898,1.538-3.435,3.435-3.435C212.618,376.316,214.156,377.853,214.156,379.751z"/>
			<path style="opacity:0.51;fill:#FFFFFF;" d="M162.102,358.752c0,1.92-1.557,3.476-3.477,3.476c-1.919,0-3.476-1.557-3.476-3.476
				c0-1.921,1.557-3.478,3.476-3.478C160.545,355.274,162.102,356.831,162.102,358.752z"/>
			<path style="opacity:0.89;fill:#FFFFFF;" d="M76.453,334.99c0,1.193-0.968,2.162-2.163,2.162c-1.194,0-2.162-0.969-2.162-2.162
				c0-1.194,0.968-2.162,2.162-2.162C75.485,332.828,76.453,333.796,76.453,334.99z"/>
			<path style="opacity:0.5;fill:#FFFFFF;" d="M72.012,357.99c0,1.267-1.027,2.293-2.294,2.293c-1.267,0-2.293-1.026-2.293-2.293
				c0-1.268,1.027-2.293,2.293-2.293C70.985,355.697,72.012,356.723,72.012,357.99z"/>
			<path style="opacity:0.79;fill:#FFFFFF;" d="M499.143,331.806c0,1.921-1.559,3.479-3.48,3.479s-3.477-1.558-3.477-3.479
				c0-1.922,1.555-3.479,3.477-3.479S499.143,329.884,499.143,331.806z"/>
			<path style="opacity:0.87;fill:#FFFFFF;" d="M427.99,359.685c0,0.72-0.582,1.302-1.303,1.302c-0.719,0-1.301-0.582-1.301-1.302
				c0-0.72,0.582-1.303,1.301-1.303C427.408,358.383,427.99,358.966,427.99,359.685z"/>
			<path style="opacity:0.64;fill:#FFFFFF;" d="M371.486,363.043c0,1.112-0.901,2.013-2.014,2.013c-1.111,0-2.012-0.9-2.012-2.013
				c0-1.111,0.9-2.013,2.012-2.013C370.585,361.03,371.486,361.932,371.486,363.043z"/>
			<path style="opacity:0.5;fill:#FFFFFF;" d="M341.03,384.223c-0.516-0.249-0.93-0.664-1.18-1.179
				c-0.455-0.941-0.77-2.012-0.905-3.163c-0.137,1.152-0.452,2.223-0.907,3.164c-0.25,0.517-0.663,0.93-1.179,1.18
				c-0.942,0.455-2.012,0.77-3.161,0.906c1.148,0.134,2.219,0.448,3.161,0.904c0.513,0.25,0.931,0.664,1.179,1.18
				c0.455,0.941,0.77,2.014,0.907,3.164c0.136-1.15,0.451-2.222,0.905-3.163c0.249-0.515,0.664-0.931,1.18-1.18
				c0.941-0.454,2.013-0.772,3.162-0.905C343.043,384.994,341.971,384.678,341.03,384.223z"/>
			<path style="opacity:0.92;fill:#FFFFFF;" d="M306.907,360.685c0,0.696-0.565,1.262-1.261,1.262c-0.697,0-1.262-0.565-1.262-1.262
				c0-0.697,0.565-1.263,1.262-1.263C306.342,359.423,306.907,359.988,306.907,360.685z"/>
			<path style="opacity:0.87;fill:#FFFFFF;" d="M295.888,347.685c0,0.607-0.492,1.1-1.099,1.1c-0.607,0-1.1-0.492-1.1-1.1
				c0-0.607,0.492-1.099,1.1-1.099C295.395,346.586,295.888,347.078,295.888,347.685z"/>
			<path style="opacity:0.9;fill:#FFFFFF;" d="M234.123,345.685c0,0.658-0.533,1.191-1.191,1.191c-0.659,0-1.192-0.533-1.192-1.191
				c0-0.657,0.533-1.19,1.192-1.19C233.59,344.494,234.123,345.027,234.123,345.685z"/>
			<path style="opacity:0.62;fill:#FFFFFF;" d="M144.153,353.685c0,0.594-0.483,1.078-1.078,1.078s-1.078-0.484-1.078-1.078
				c0-0.595,0.483-1.078,1.078-1.078S144.153,353.091,144.153,353.685z"/>
			<path style="opacity:0.94;fill:#FFFFFF;" d="M98.352,348.685c0,0.628-0.508,1.135-1.134,1.135c-0.625,0-1.134-0.507-1.134-1.135
				c0-0.626,0.508-1.134,1.134-1.134C97.843,347.551,98.352,348.059,98.352,348.685z"/>
			<path style="opacity:0.96;fill:#FFFFFF;" d="M39.581,316.685c0,0.675-0.547,1.222-1.221,1.222c-0.673,0-1.221-0.547-1.221-1.222
				s0.547-1.22,1.221-1.22C39.034,315.465,39.581,316.01,39.581,316.685z"/>
			<path style="opacity:0.63;fill:#FFFFFF;" d="M448.102,301.298c0,1.417-1.15,2.567-2.566,2.567c-1.416,0-2.566-1.15-2.566-2.567
				c0-1.417,1.15-2.566,2.566-2.566C446.951,298.732,448.102,299.881,448.102,301.298z"/>
			<path style="opacity:0.89;fill:#FFFFFF;" d="M368.951,262.481c-0.513-0.248-0.926-0.661-1.175-1.173
				c-0.452-0.936-0.765-2.002-0.9-3.148c-0.136,1.146-0.45,2.213-0.902,3.15c-0.249,0.513-0.661,0.925-1.174,1.174
				c-0.938,0.452-2.002,0.766-3.146,0.901c1.143,0.134,2.209,0.446,3.146,0.9c0.511,0.248,0.927,0.661,1.174,1.173
				c0.452,0.938,0.767,2.004,0.902,3.148c0.136-1.143,0.448-2.209,0.9-3.145c0.249-0.515,0.662-0.927,1.175-1.176
				c0.936-0.452,2.003-0.768,3.147-0.901C370.954,263.25,369.888,262.935,368.951,262.481z"/>
			<path style="opacity:0.59;fill:#FFFFFF;" d="M361.469,327.94c0,0.544-0.44,0.983-0.983,0.983c-0.543,0-0.984-0.439-0.984-0.983
				c0-0.543,0.44-0.982,0.984-0.982C361.029,326.958,361.469,327.397,361.469,327.94z"/>
			<path style="opacity:0.76;fill:#FFFFFF;" d="M311.066,270.061c0,1.962-1.593,3.555-3.557,3.555c-1.964,0-3.557-1.593-3.557-3.555
				c0-1.964,1.593-3.557,3.557-3.557C309.474,266.505,311.066,268.098,311.066,270.061z"/>
			<path style="opacity:0.94;fill:#FFFFFF;" d="M185.715,290.94c0,0.652-0.53,1.181-1.182,1.181c-0.652,0-1.182-0.528-1.182-1.181
				c0-0.653,0.53-1.181,1.182-1.181C185.185,289.76,185.715,290.287,185.715,290.94z"/>
			<path style="opacity:0.62;fill:#FFFFFF;" d="M161.951,295.94c0,0.704-0.57,1.274-1.274,1.274c-0.705,0-1.275-0.57-1.275-1.274
				s0.57-1.274,1.275-1.274C161.38,294.666,161.951,295.236,161.951,295.94z"/>
			<path style="opacity:0.81;fill:#FFFFFF;" d="M116.872,271.3c0,1.329-1.079,2.408-2.41,2.408c-1.331,0-2.41-1.079-2.41-2.408
				c0-1.331,1.079-2.41,2.41-2.41C115.793,268.89,116.872,269.969,116.872,271.3z"/>
			<path style="opacity:0.89;fill:#FFFFFF;" d="M16.32,281.29c-0.622-0.302-1.122-0.802-1.423-1.422
				c-0.549-1.136-0.929-2.428-1.093-3.817c-0.165,1.39-0.545,2.684-1.094,3.819c-0.302,0.622-0.801,1.12-1.423,1.425
				c-1.137,0.547-2.428,0.927-3.815,1.091c1.386,0.162,2.679,0.542,3.815,1.092c0.619,0.302,1.123,0.802,1.423,1.422
				c0.549,1.138,0.929,2.43,1.094,3.817c0.164-1.386,0.544-2.678,1.093-3.814c0.301-0.622,0.802-1.122,1.423-1.423
				c1.136-0.549,2.429-0.933,3.816-1.095C18.748,282.222,17.456,281.84,16.32,281.29z"/>
			<path style="opacity:0.65;fill:#FFFFFF;" d="M474.728,224.316c0,1.898-1.539,3.438-3.439,3.438c-1.898,0-3.438-1.54-3.438-3.438
				c0-1.9,1.539-3.439,3.438-3.439C473.19,220.877,474.728,222.416,474.728,224.316z"/>
			<path style="opacity:0.56;fill:#FFFFFF;" d="M476.332,211.195c0,0.563-0.457,1.018-1.017,1.018c-0.563,0-1.02-0.455-1.02-1.018
				s0.457-1.018,1.02-1.018C475.875,210.178,476.332,210.633,476.332,211.195z"/>
			<path style="opacity:0.73;fill:#FFFFFF;" d="M397.939,180.316c0,1.988-1.613,3.602-3.604,3.602c-1.988,0-3.602-1.614-3.602-3.602
				c0-1.99,1.613-3.604,3.602-3.604C396.326,176.713,397.939,178.326,397.939,180.316z"/>
			<path style="opacity:0.59;fill:#FFFFFF;" d="M345.074,214.314c0,1.809-1.466,3.275-3.274,3.275s-3.274-1.467-3.274-3.275
				c0-1.808,1.466-3.273,3.274-3.273S345.074,212.506,345.074,214.314z"/>
			<path style="opacity:0.83;fill:#FFFFFF;" d="M293.488,158.723c-0.521-0.252-0.94-0.671-1.193-1.192
				c-0.46-0.951-0.778-2.033-0.915-3.197c-0.138,1.164-0.457,2.248-0.917,3.199c-0.253,0.522-0.67,0.939-1.191,1.192
				c-0.952,0.46-2.034,0.778-3.196,0.915c1.161,0.137,2.244,0.453,3.196,0.916c0.519,0.251,0.941,0.67,1.191,1.191
				c0.46,0.952,0.779,2.035,0.917,3.198c0.137-1.162,0.455-2.244,0.915-3.195c0.252-0.521,0.671-0.941,1.193-1.192
				c0.951-0.46,2.034-0.78,3.197-0.917C295.522,159.504,294.439,159.184,293.488,158.723z"/>
			<path style="opacity:0.69;fill:#FFFFFF;" d="M167.367,192.553c0,1.227-0.994,2.221-2.22,2.221c-1.226,0-2.22-0.994-2.22-2.221
				c0-1.227,0.994-2.22,2.22-2.22C166.373,190.333,167.367,191.326,167.367,192.553z"/>
			<path style="opacity:0.94;fill:#FFFFFF;" d="M120.986,228.195c0,0.582-0.472,1.054-1.053,1.054c-0.583,0-1.054-0.472-1.054-1.054
				s0.472-1.054,1.054-1.054C120.515,227.142,120.986,227.613,120.986,228.195z"/>
			<path style="opacity:0.5;fill:#FFFFFF;" d="M41.657,250.555c0,1.07-0.868,1.939-1.939,1.939c-1.071,0-1.939-0.869-1.939-1.939
				c0-1.073,0.868-1.941,1.939-1.941C40.789,248.614,41.657,249.482,41.657,250.555z"/>
			<path style="opacity:0.74;fill:#FFFFFF;" d="M517.578,137.74c0,1.729-1.404,3.133-3.135,3.133c-1.731,0-3.131-1.403-3.131-3.133
				c0-1.73,1.4-3.133,3.131-3.133C516.174,134.607,517.578,136.01,517.578,137.74z"/>
			<path style="opacity:0.75;fill:#FFFFFF;" d="M410.258,127.979c0,1.186-0.961,2.148-2.148,2.148c-1.184,0-2.147-0.962-2.147-2.148
				c0-1.186,0.963-2.147,2.147-2.147C409.297,125.831,410.258,126.793,410.258,127.979z"/>
			<path style="opacity:0.91;fill:#FFFFFF;" d="M368.239,220.62c0,0.742-0.601,1.344-1.343,1.344c-0.742,0-1.343-0.602-1.343-1.344
				c0-0.741,0.601-1.343,1.343-1.343C367.639,219.277,368.239,219.879,368.239,220.62z"/>
			<path style="opacity:0.84;fill:#FFFFFF;" d="M320.701,166.621c0,0.609-0.494,1.102-1.102,1.102c-0.609,0-1.103-0.493-1.103-1.102
				c0-0.609,0.494-1.104,1.103-1.104C320.206,165.518,320.701,166.012,320.701,166.621z"/>
			<path style="opacity:0.99;fill:#FFFFFF;" d="M262.345,175.979c0,1.084-0.878,1.963-1.961,1.963c-1.083,0-1.961-0.879-1.961-1.963
				c0-1.082,0.878-1.961,1.961-1.961C261.467,174.018,262.345,174.896,262.345,175.979z"/>
			<path style="opacity:0.93;fill:#FFFFFF;" d="M207.471,183.621c0,0.719-0.583,1.301-1.301,1.301c-0.719,0-1.302-0.583-1.302-1.301
				c0-0.719,0.583-1.302,1.302-1.302C206.888,182.319,207.471,182.902,207.471,183.621z"/>
			<path style="opacity:0.83;fill:#FFFFFF;" d="M165.288,166.741c0,1.708-1.385,3.095-3.095,3.095c-1.709,0-3.094-1.387-3.094-3.095
				c0-1.709,1.385-3.095,3.094-3.095C163.902,163.646,165.288,165.032,165.288,166.741z"/>
			<path style="opacity:0.72;fill:#FFFFFF;" d="M90.504,167.621c0,0.71-0.576,1.286-1.286,1.286c-0.711,0-1.287-0.576-1.287-1.286
				c0-0.711,0.576-1.287,1.287-1.287C89.928,166.334,90.504,166.91,90.504,167.621z"/>
			<path style="opacity:0.84;fill:#FFFFFF;" d="M60.609,178.621c0,0.689-0.56,1.248-1.249,1.248c-0.689,0-1.249-0.558-1.249-1.248
				c0-0.689,0.56-1.248,1.249-1.248C60.049,177.373,60.609,177.932,60.609,178.621z"/>
			<path style="opacity:0.62;fill:#FFFFFF;" d="M527.615,127.171c0,1.159-0.938,2.099-2.098,2.099c-1.16,0-2.1-0.939-2.1-2.099
				s0.939-2.098,2.1-2.098C526.678,125.073,527.615,126.012,527.615,127.171z"/>
			<path style="opacity:0.67;fill:#FFFFFF;" d="M465.455,121.128c-0.643-0.311-1.158-0.827-1.469-1.468
				c-0.566-1.171-0.957-2.503-1.127-3.937c-0.17,1.434-0.563,2.768-1.129,3.938c-0.311,0.643-0.826,1.157-1.469,1.469
				c-1.172,0.566-2.504,0.959-3.935,1.127c1.43,0.168,2.764,0.56,3.935,1.128c0.639,0.31,1.16,0.826,1.469,1.467
				c0.566,1.173,0.959,2.506,1.129,3.938c0.17-1.429,0.56-2.763,1.127-3.934c0.311-0.643,0.826-1.159,1.469-1.469
				c1.172-0.566,2.506-0.961,3.935-1.129C467.961,122.09,466.627,121.695,465.455,121.128z"/>
			<path style="opacity:0.53;fill:#FFFFFF;" d="M367.474,94.171c0,1.256-1.018,2.274-2.273,2.274c-1.256,0-2.273-1.018-2.273-2.274
				c0-1.255,1.018-2.273,2.273-2.273C366.456,91.897,367.474,92.916,367.474,94.171z"/>
			<path style="opacity:0.72;fill:#FFFFFF;" d="M331.286,76.307c-0.539-0.26-0.974-0.695-1.235-1.234
				c-0.477-0.986-0.806-2.107-0.948-3.313c-0.143,1.206-0.473,2.328-0.95,3.314c-0.261,0.541-0.694,0.973-1.234,1.236
				c-0.986,0.477-2.107,0.806-3.312,0.948c1.203,0.141,2.326,0.471,3.312,0.949c0.538,0.26,0.975,0.694,1.234,1.233
				c0.477,0.988,0.807,2.109,0.95,3.314c0.142-1.204,0.472-2.325,0.948-3.311c0.262-0.541,0.696-0.975,1.235-1.236
				c0.986-0.476,2.108-0.809,3.313-0.949C333.394,77.116,332.272,76.786,331.286,76.307z"/>
			<path style="opacity:0.72;fill:#FFFFFF;" d="M278.742,132.221c-0.589-0.285-1.064-0.76-1.349-1.348
				c-0.52-1.076-0.879-2.299-1.035-3.615c-0.156,1.316-0.517,2.541-1.037,3.617c-0.286,0.59-0.759,1.063-1.348,1.348
				c-1.077,0.521-2.3,0.881-3.615,1.036c1.313,0.153,2.538,0.513,3.615,1.034c0.587,0.285,1.065,0.76,1.348,1.348
				c0.52,1.079,0.881,2.302,1.037,3.616c0.155-1.313,0.515-2.536,1.035-3.612c0.286-0.591,0.76-1.064,1.349-1.35
				c1.076-0.52,2.301-0.883,3.616-1.036C281.043,133.104,279.818,132.742,278.742,132.221z"/>
			<path style="opacity:0.65;fill:#FFFFFF;" d="M242.086,119.813c0,0.568-0.461,1.029-1.028,1.029c-0.567,0-1.028-0.461-1.028-1.029
				c0-0.566,0.461-1.027,1.028-1.027C241.625,118.786,242.086,119.246,242.086,119.813z"/>
			<path style="opacity:0.57;fill:#FFFFFF;" d="M164.09,118.242c-0.577-0.279-1.04-0.743-1.32-1.318
				c-0.509-1.053-0.861-2.25-1.013-3.538c-0.153,1.288-0.506,2.487-1.014,3.54c-0.28,0.577-0.743,1.039-1.32,1.319
				c-1.054,0.509-2.251,0.861-3.538,1.013c1.285,0.15,2.484,0.502,3.538,1.014c0.574,0.278,1.042,0.742,1.32,1.318
				c0.508,1.055,0.861,2.252,1.014,3.539c0.152-1.285,0.504-2.483,1.013-3.536c0.279-0.577,0.743-1.041,1.32-1.32
				c1.053-0.509,2.252-0.864,3.539-1.015C166.342,119.106,165.143,118.752,164.09,118.242z"/>
			<path style="opacity:0.95;fill:#FFFFFF;" d="M696.043,320.991c0,2.147-1.742,3.891-3.891,3.891c-2.148,0-3.891-1.743-3.891-3.891
				c0-2.149,1.742-3.893,3.891-3.893C694.301,317.099,696.043,318.842,696.043,320.991z"/>
			<path style="opacity:0.5;fill:#FFFFFF;" d="M631.252,363.751c0,1.897-1.537,3.434-3.436,3.434c-1.896,0-3.434-1.537-3.434-3.434
				c0-1.898,1.537-3.435,3.434-3.435C629.715,360.316,631.252,361.853,631.252,363.751z"/>
			<path style="opacity:0.65;fill:#FFFFFF;" d="M515.199,397.752c0,1.92-1.557,3.476-3.479,3.476c-1.918,0-3.475-1.557-3.475-3.476
				c0-1.921,1.557-3.478,3.475-3.478C513.643,394.274,515.199,395.831,515.199,397.752z"/>
			<path style="opacity:0.5;fill:#FFFFFF;" d="M654.984,349.685c0,0.607-0.492,1.1-1.098,1.1c-0.607,0-1.1-0.492-1.1-1.1
				c0-0.607,0.492-1.099,1.1-1.099C654.492,348.586,654.984,349.078,654.984,349.685z"/>
			<path style="opacity:0.84;fill:#FFFFFF;" d="M581.221,318.685c0,0.658-0.533,1.191-1.191,1.191s-1.191-0.533-1.191-1.191
				c0-0.657,0.533-1.19,1.191-1.19S581.221,318.027,581.221,318.685z"/>
			<path style="opacity:0.7;fill:#FFFFFF;" d="M692.164,271.061c0,1.962-1.594,3.555-3.557,3.555c-1.965,0-3.557-1.593-3.557-3.555
				c0-1.964,1.592-3.557,3.557-3.557C690.57,267.505,692.164,269.098,692.164,271.061z"/>
			<path style="opacity:0.72;fill:#FFFFFF;" d="M571.465,201.553c0,1.227-0.994,2.221-2.221,2.221c-1.227,0-2.221-0.994-2.221-2.221
				c0-1.227,0.994-2.22,2.221-2.22C570.471,199.333,571.465,200.326,571.465,201.553z"/>
			<path style="opacity:0.92;fill:#FFFFFF;" d="M664.441,153.979c0,1.084-0.877,1.963-1.961,1.963c-1.082,0-1.961-0.879-1.961-1.963
				c0-1.082,0.879-1.961,1.961-1.961C663.565,152.018,664.441,152.896,664.441,153.979z"/>
			<path style="opacity:0.58;fill:#FFFFFF;" d="M620.568,177.621c0,0.719-0.584,1.301-1.301,1.301c-0.721,0-1.303-0.583-1.303-1.301
				c0-0.719,0.582-1.302,1.303-1.302C619.984,176.319,620.568,176.902,620.568,177.621z"/>
			<path style="opacity:0.61;fill:#FFFFFF;" d="M547.385,190.741c0,1.708-1.385,3.095-3.096,3.095c-1.707,0-3.094-1.387-3.094-3.095
				c0-1.709,1.387-3.095,3.094-3.095C546,187.646,547.385,189.032,547.385,190.741z"/>
			<path style="opacity:0.72;fill:#FFFFFF;" d="M657.84,130.221c-0.59-0.285-1.064-0.76-1.35-1.348
				c-0.519-1.076-0.879-2.299-1.035-3.615c-0.156,1.316-0.516,2.541-1.037,3.617c-0.285,0.59-0.758,1.063-1.348,1.348
				c-1.076,0.521-2.299,0.881-3.615,1.036c1.314,0.153,2.539,0.513,3.615,1.034c0.588,0.285,1.065,0.76,1.348,1.348
				c0.521,1.079,0.881,2.302,1.037,3.616c0.156-1.313,0.516-2.536,1.035-3.612c0.285-0.591,0.76-1.064,1.35-1.35
				c1.074-0.52,2.301-0.883,3.615-1.036C660.141,131.104,658.914,130.742,657.84,130.221z"/>
			<path style="opacity:0.99;fill:#FFFFFF;" d="M625.184,132.813c0,0.568-0.461,1.029-1.029,1.029c-0.566,0-1.027-0.461-1.027-1.029
				c0-0.566,0.461-1.027,1.027-1.027C624.723,131.786,625.184,132.246,625.184,132.813z"/>

		</g>
		
			<linearGradient id="SVGID_00000024683799127181250700000007857610183928793242_" gradientUnits="userSpaceOnUse" x1="400" y1="401.5" x2="400" y2="152.1803">
			<stop  offset="0" style="stop-color:#6225E6"/>
			<stop  offset="1" style="stop-color:#82BAF5"/>
		</linearGradient>
		<path style="fill:url(#SVGID_00000024683799127181250700000007857610183928793242_); height:100px" d="M0,183.5l44.5,23.7
			c44.5,23.601,133.5,71,222.301,60.601C355.7,257.5,444.301,189.5,533.2,164.7c88.8-24.899,177.8-6.5,222.3,2.601L800,176.5v225
			h-44.5c-44.5,0-133.5,0-222.3,0c-88.899,0-177.5,0-266.399,0c-88.801,0-177.801,0-222.301,0H0V183.5z"/>
		
			<linearGradient id="SVGID_00000083054440586066817810000001045043865467240341_" gradientUnits="userSpaceOnUse" x1="400" y1="398.5" x2="400" y2="262.942">
			<stop  offset="0" style="stop-color:#6225E6"/>
			<stop  offset="1" style="stop-color:#C3E7FF"/>
		</linearGradient>
	</g>
</g>
<g id="Layer_1">
</g>
</svg>
