<svg width="100%" height="100%" id="svg" viewBox="0 0 1440 590" xmlns="http://www.w3.org/2000/svg" class="transition duration-300 ease-in-out delay-150"><defs><linearGradient id="gradient" x1="0%" y1="50%" x2="100%" y2="50%"><stop offset="5%" stop-color="#9900ef"></stop><stop offset="95%" stop-color="#f78da7"></stop></linearGradient></defs><path d="M 0,600 L 0,150 C 82.2390930951563,131.73136379251116 164.4781861903126,113.46272758502235 225,131 C 285.5218138096874,148.53727241497765 324.3263483339059,201.88045345242182 380,251 C 435.6736516660941,300.1195465475782 508.21642047406397,345.0154586052903 580,356 C 651.783579525936,366.9845413947097 722.8079697698385,344.057712126417 792,361 C 861.1920302301615,377.942287873583 928.5517004465819,434.75369288904164 1007,469 C 1085.448299553418,503.24630711095836 1174.9852284438339,514.9275163174167 1249,533 C 1323.0147715561661,551.0724836825833 1381.507385778083,575.5362418412917 1440,600 L 1440,600 L 0,600 Z" stroke="none" stroke-width="0" fill="url(#gradient)" fill-opacity="0.53" class="transition-all duration-300 ease-in-out delay-150 path-0"></path><defs><linearGradient id="gradient" x1="0%" y1="50%" x2="100%" y2="50%"><stop offset="5%" stop-color="#9900ef"></stop><stop offset="95%" stop-color="#f78da7"></stop></linearGradient></defs><path d="M 0,600 L 0,350 C 61.40845070422536,357.5321195465476 122.81690140845072,365.0642390930952 187,355 C 251.18309859154928,344.9357609069048 318.1408450704225,317.2751631741669 403,354 C 487.8591549295775,390.7248368258331 590.6197183098592,491.8351082102371 654,531 C 717.3802816901408,570.1648917897629 741.3802816901408,547.384403984885 801,562 C 860.6197183098592,576.615596015115 955.8591549295775,628.6272758502232 1028,656 C 1100.1408450704225,683.3727241497768 1149.1830985915492,686.1064926142219 1214,706 C 1278.8169014084508,725.8935073857781 1359.4084507042253,762.946753692889 1440,800 L 1440,600 L 0,600 Z" stroke="none" stroke-width="0" fill="url(#gradient)" fill-opacity="1" class="transition-all duration-300 ease-in-out delay-150 path-1"></path></svg>